<svg xmlns="http://www.w3.org/2000/svg"  viewBox="0 0 64 64" width="64px" height="64px"><linearGradient id="slr0fspJZ8Sloslbv8ri_a" x1="32.092" x2="32.092" y1="7.766" y2="57.066" gradientUnits="userSpaceOnUse"><stop offset="0" stop-color="#1a6dff"/><stop offset="1" stop-color="#c822ff"/></linearGradient><path fill="url(#slr0fspJZ8Sloslbv8ri_a)" d="M53.316,8.324C53.127,8.118,52.859,8,52.579,8H13.605c-0.84,0-1.646,0.355-2.213,0.975 s-0.85,1.453-0.775,2.289l3.318,37.613c0.109,1.229,0.979,2.281,2.165,2.62l15.075,4.308c0.27,0.076,0.547,0.115,0.824,0.115 s0.555-0.039,0.824-0.115l15.075-4.308c1.186-0.339,2.056-1.392,2.165-2.621l3.511-39.788C53.6,8.809,53.506,8.531,53.316,8.324z M48.072,48.699c-0.037,0.417-0.32,0.76-0.722,0.874l-15.075,4.308c-0.18,0.053-0.371,0.053-0.551,0l-15.075-4.308 c-0.401-0.114-0.685-0.457-0.722-0.873l-3.318-37.612c-0.025-0.283,0.066-0.554,0.259-0.763C13.06,10.115,13.321,10,13.605,10 h37.882L48.072,48.699z"/><linearGradient id="slr0fspJZ8Sloslbv8ri_b" x1="32.001" x2="32.001" y1="7.766" y2="57.066" gradientUnits="userSpaceOnUse"><stop offset="0" stop-color="#1a6dff"/><stop offset="1" stop-color="#c822ff"/></linearGradient><path fill="url(#slr0fspJZ8Sloslbv8ri_b)" d="M18.521,48.028l13.205,3.773c0.09,0.025,0.182,0.038,0.274,0.038s0.185-0.013,0.274-0.038 l13.205-3.773c0.398-0.114,0.686-0.462,0.722-0.874l3.006-34.066c0.024-0.279-0.069-0.557-0.259-0.764 C48.759,12.118,48.491,12,48.211,12H15.79c-0.28,0-0.548,0.118-0.737,0.324c-0.189,0.207-0.283,0.484-0.259,0.764l3.005,34.066 C17.835,47.566,18.122,47.914,18.521,48.028z M47.119,14l-2.85,32.294L32,49.8l-12.27-3.506L16.882,14H47.119z"/><g><linearGradient id="slr0fspJZ8Sloslbv8ri_c" x1="31.995" x2="31.995" y1="19.575" y2="40.626" gradientUnits="userSpaceOnUse"><stop offset="0" stop-color="#6dc7ff"/><stop offset="1" stop-color="#e6abff"/></linearGradient><path fill="url(#slr0fspJZ8Sloslbv8ri_c)" d="M41.661,23.541l0.245-3C41.93,20.249,41.7,20,41.408,20H22.583 c-0.289,0-0.517,0.244-0.499,0.532l0.698,11C22.798,31.795,23.017,32,23.281,32h12.916c0.289,0,0.518,0.245,0.499,0.533 l-0.269,4.061c-0.013,0.201-0.146,0.375-0.337,0.44l-3.982,1.36c-0.105,0.036-0.218,0.036-0.323,0L27.8,37.033 c-0.19-0.065-0.322-0.236-0.337-0.436l-0.159-2.134C27.285,34.202,27.067,34,26.805,34h-3.349c-0.29,0-0.519,0.246-0.499,0.535 l0.374,5.319c0.014,0.203,0.15,0.376,0.342,0.44l8.115,2.671c0.102,0.033,0.211,0.033,0.313,0l8.113-2.67 c0.194-0.064,0.33-0.24,0.343-0.444l0.707-11.32C41.282,28.243,41.054,28,40.765,28H27.404c-0.26,0-0.477-0.2-0.498-0.459l-0.245-3 C26.638,24.249,26.867,24,27.16,24h14.003C41.423,24,41.64,23.8,41.661,23.541z"/></g></svg>