<svg xmlns="http://www.w3.org/2000/svg"  viewBox="0 0 64 64" width="64px" height="64px" baseProfile="basic"><linearGradient id="dFMIpH0DLBLP_Mye2ctJMa" x1="15.25" x2="15.25" y1="31.296" y2="15.385" gradientTransform="matrix(1 0 0 -1 0 64)" gradientUnits="userSpaceOnUse"><stop offset="0" stop-color="#8ab4ff"/><stop offset=".699" stop-color="#e492ff"/></linearGradient><path fill="url(#dFMIpH0DLBLP_Mye2ctJMa)" d="M19.09,39.37c0,0.01,0.01,0.01,0.01,0.02l-7.7,4.5L19.09,39.37z"/><linearGradient id="dFMIpH0DLBLP_Mye2ctJMb" x1="15.25" x2="15.25" y1="33.329" y2="20.11" gradientTransform="matrix(1 0 0 -1 0 64)" gradientUnits="userSpaceOnUse"><stop offset="0" stop-color="#8ab4ff"/><stop offset=".699" stop-color="#e492ff"/></linearGradient><path fill="url(#dFMIpH0DLBLP_Mye2ctJMb)" d="M19.09,39.37c0,0.01,0.01,0.01,0.01,0.02	l-7.7,4.5L19.09,39.37z"/><linearGradient id="dFMIpH0DLBLP_Mye2ctJMc" x1="31.87" x2="31.87" y1="10.7" y2="35.152" gradientUnits="userSpaceOnUse"><stop offset="0" stop-color="#8ab4ff"/><stop offset="1" stop-color="#e492ff"/></linearGradient><path fill="url(#dFMIpH0DLBLP_Mye2ctJMc)" d="M32,8.21l-20.6,11.9v23.78l7.69-4.52	c-1.18-2.17-1.85-4.65-1.85-7.3c0-2.88,0.8-5.56,2.18-7.87c2.68-4.46,7.57-7.46,13.15-7.46c5.27,0,10.11,2.67,12.94,7.12l-0.39,0.24	l-6.57,3.87c-1.35-1.99-3.57-3.16-5.98-3.16c-2.62,0-4.91,1.39-6.19,3.47c-0.68,1.11-1.07,2.4-1.07,3.79c0,1.16,0.27,2.25,0.75,3.22	l6.13-3.6h0.01l0.04,0.02l20.1-11.75L32,8.21z"/><linearGradient id="dFMIpH0DLBLP_Mye2ctJMd" x1="32" x2="32" y1="8.058" y2="57.784" gradientUnits="userSpaceOnUse"><stop offset="0" stop-color="#1a6dff"/><stop offset="1" stop-color="#c822ff"/></linearGradient><path fill="url(#dFMIpH0DLBLP_Mye2ctJMd)" d="M32.24,31.71l-6.17,3.6	c1.19,2.38,3.66,4.02,6.5,4.02c2.382,0,4.553-1.156,5.911-3.063l7.076,3.931C42.76,44.666,37.897,47.4,32.57,47.4	c-5.8,0-10.87-3.24-13.47-8.01l-7.7,4.5L32,55.79l20.6-11.9v-0.22V20.11l-0.26-0.15L32.24,31.71z M51,31h-2v2h2v2h-2v2h-2v-2h-2v2	h-2v-2h-2v-2h2v-2h-2v-2h2v-2h2v2h2v-2h2v2h2V31z M45,31h2v2h-2V31z M55.1,16.93L33.5,4.46c-0.93-0.53-2.07-0.53-3,0L8.9,16.93	c-0.92,0.54-1.5,1.53-1.5,2.6v24.94c0,1.07,0.58,2.06,1.5,2.6l21.6,12.47c0.93,0.53,2.07,0.53,3,0l21.6-12.47	c0.92-0.54,1.5-1.53,1.5-2.6V19.53C56.6,18.46,56.02,17.47,55.1,16.93z M54.6,44.47c0,0.36-0.19,0.69-0.5,0.87L32.5,57.81	c-0.31,0.17-0.69,0.17-1,0L9.9,45.34c-0.31-0.18-0.5-0.51-0.5-0.87V19.53c0-0.36,0.19-0.69,0.5-0.87L31.5,6.19	c0.31-0.17,0.69-0.17,1,0l21.6,12.47c0.31,0.18,0.5,0.51,0.5,0.87V44.47z"/></svg>