<svg xmlns="http://www.w3.org/2000/svg"  viewBox="0 0 64 64" width="64px" height="64px"><linearGradient id="k4Wi0sDN9ImZC~anEGVOCa" x1="29.399" x2="29.399" y1="21.083" y2="44.334" gradientUnits="userSpaceOnUse"><stop offset="0" stop-color="#6dc7ff"/><stop offset="1" stop-color="#e6abff"/></linearGradient><polygon fill="url(#k4Wi0sDN9ImZC~anEGVOCa)" points="33,31 38.706,19.782 27.919,21.758 20.093,31"/><linearGradient id="k4Wi0sDN9ImZC~anEGVOCb" x1="41.474" x2="41.474" y1="21.083" y2="44.334" gradientUnits="userSpaceOnUse"><stop offset="0" stop-color="#6dc7ff"/><stop offset="1" stop-color="#e6abff"/></linearGradient><polygon fill="url(#k4Wi0sDN9ImZC~anEGVOCb)" points="42.467,22.128 37,33 43.193,42.524 45.948,32.313"/><linearGradient id="k4Wi0sDN9ImZC~anEGVOCc" x1="29.976" x2="29.976" y1="21.083" y2="44.334" gradientUnits="userSpaceOnUse"><stop offset="0" stop-color="#6dc7ff"/><stop offset="1" stop-color="#e6abff"/></linearGradient><polygon fill="url(#k4Wi0sDN9ImZC~anEGVOCc)" points="20.422,35 28.735,43.181 39.53,44.825 33,35"/><linearGradient id="k4Wi0sDN9ImZC~anEGVOCd" x1="29.834" x2="30.211" y1="7.965" y2="57.379" gradientUnits="userSpaceOnUse"><stop offset="0" stop-color="#1a6dff"/><stop offset="1" stop-color="#c822ff"/></linearGradient><path fill="url(#k4Wi0sDN9ImZC~anEGVOCd)" d="M47.458,55.001c-0.115,0-0.233-0.01-0.354-0.032l-17.443-2.998	c-0.681-0.116-1.262-0.587-1.519-1.228L26.646,47h-5.063c-0.514,0-1.003-0.195-1.377-0.551L7.62,34.447	c-0.785-0.747-0.826-2.005-0.09-2.804l12.001-13.001C19.908,18.234,20.443,18,21,18h4.646l1.496-3.743	c0.239-0.598,0.756-1.047,1.383-1.201l16.417-4c0.984-0.234,2.029,0.333,2.361,1.284l5.585,16.001	c0.174,0.503,0.145,1.041-0.082,1.518l-2.539,4.31l2.411,3.518c0.298,0.486,0.385,1.007,0.275,1.512l-3.543,16.229	C49.213,54.339,48.392,55.001,47.458,55.001z M47.457,53.001l0.001,1L47.457,53.001C47.458,53.001,47.458,53.001,47.457,53.001z M28.898,47.248L30,50.001L47.457,53L51,36.771l-1.517-2.211l-3.715,13.758l-9.92-15.255l8.657-17.216l4.816,13.986l1.72-2.913	l-5.627-15.922l-16.415,4l-1.076,2.69l14.301-2.62L33.613,32H14.011l10.156-12H21L9,33l12.584,12h3.301L13.729,34h19.808	L43.83,49.49L28.898,47.248z M28.038,45.096l11.632,1.748L32.464,36H18.605l9.128,9l0.142,0.063L28.038,45.096z M38.151,32.937	l6.854,10.538l2.992-11.082l0.019-0.158l-0.028-0.137L44.16,20.986L38.151,32.937z M18.323,30h14.063l6.223-12.235l-11.754,2.154	L18.323,30z"/></svg>