<svg xmlns="http://www.w3.org/2000/svg"  viewBox="0 0 64 64" width="64px" height="64px"><linearGradient id="SVGID_1_" x1="32" x2="32" y1="9.043" y2="55.011" gradientUnits="userSpaceOnUse"><stop offset="0" stop-color="#1a6dff"/><stop offset="1" stop-color="#c822ff"/></linearGradient><path fill="url(#SVGID_1_)" d="M51,8H13c-2.8,0-5,2.2-5,5v38c0,2.8,2.2,5,5,5h38c2.8,0,5-2.2,5-5V13C56,10.2,53.8,8,51,8z M54,51	c0,1.7-1.3,3-3,3H13c-1.7,0-3-1.3-3-3V13c0-1.7,1.3-3,3-3h38c1.7,0,3,1.3,3,3V51z"/><linearGradient id="SVGID_2_" x1="45.578" x2="45.578" y1="35.681" y2="50.191" gradientUnits="userSpaceOnUse"><stop offset="0" stop-color="#6dc7ff"/><stop offset="1" stop-color="#e6abff"/></linearGradient><path fill="url(#SVGID_2_)" d="M46.7,41.5l-0.8-0.3c-1.4-0.6-2-1-2-2c0-0.8,0.6-1.4,1.5-1.4c0.8,0,1.3,0.3,1.8,1c0.1,0.2,0.4,0.3,0.7,0.1 l1.7-1.1c0.2-0.1,0.3-0.5,0.2-0.7c-1-1.5-2.4-2.1-4.3-2.1c-2.9,0-4.7,1.8-4.7,4.2c0,2.6,1.5,3.9,3.9,4.8l0.8,0.3 c1.5,0.6,2.2,1,2.2,2.1c0,0.9-0.7,1.6-2,1.6c-1.4,0-2.1-0.8-2.8-1.8c-0.2-0.2-0.5-0.3-0.7-0.1l-1.7,1.1c-0.2,0.1-0.3,0.4-0.2,0.7 c1,1.7,2.6,3,5.4,3c3.1,0,5.3-1.6,5.3-4.5C51,43.8,49.5,42.6,46.7,41.5z"/><linearGradient id="SVGID_3_" x1="34.081" x2="34.081" y1="35.681" y2="50.191" gradientUnits="userSpaceOnUse"><stop offset="0" stop-color="#6dc7ff"/><stop offset="1" stop-color="#e6abff"/></linearGradient><path fill="url(#SVGID_3_)" d="M38.5,35h-2.3c-0.3,0-0.5,0.2-0.5,0.5v10.1c0,1.6-0.6,2-1.7,2c-0.9,0-1.6-0.5-2.1-1.2 c-0.1-0.2-0.4-0.3-0.7-0.1l-1.8,1.1c-0.2,0.1-0.3,0.5-0.2,0.7c0.9,1.5,2.6,2.9,5,2.9c2.9,0,4.8-1.5,4.8-4.9V35.5 C39,35.2,38.8,35,38.5,35z"/></svg>